<?xml version="1.0" encoding="UTF-8"?>
<svg xmlns="http://www.w3.org/2000/svg" viewBox="0 0 1600 900" width="1600" height="900">
  <defs>
    <style>
      @import url('https://fonts.googleapis.com/css2?family=Inter:wght@300;400;500;600;700&amp;display=swap');
      text { font-family: 'Inter', 'Helvetica Neue', Arial, sans-serif; }
    </style>
    <marker id="arrowH" markerWidth="12" markerHeight="8" refX="12" refY="4" orient="auto"><polygon points="0 0, 12 4, 0 8" fill="#5588CC"/></marker>
    <marker id="arrowM" markerWidth="12" markerHeight="8" refX="12" refY="4" orient="auto"><polygon points="0 0, 12 4, 0 8" fill="#CC8855"/></marker>
  </defs>
  <rect width="1600" height="900" fill="#0A0A0A"/>
  <rect width="1600" height="900" fill="#1A2A3A" opacity="0.35"/>
  <g opacity="0.12" stroke="#1A1A2A" stroke-width="0.5" fill="none">
    <line x1="44" y1="0" x2="44" y2="900"/><line x1="267" y1="0" x2="267" y2="900"/>
    <line x1="489" y1="0" x2="489" y2="900"/><line x1="711" y1="0" x2="711" y2="900"/>
    <line x1="933" y1="0" x2="933" y2="900"/><line x1="1156" y1="0" x2="1156" y2="900"/>
    <line x1="1378" y1="0" x2="1378" y2="900"/>
    <line x1="0" y1="783" x2="1600" y2="783"/><line x1="0" y1="642" x2="1600" y2="642"/>
    <line x1="0" y1="500" x2="1600" y2="500"/><line x1="0" y1="359" x2="1600" y2="359"/>
    <line x1="0" y1="218" x2="1600" y2="218"/><line x1="0" y1="76" x2="1600" y2="76"/>
  </g>

  <path d="M 0 366 C 15 350 40 340 67 358 C 90 372 115 372 133 372 C 148 372 160 368 170 370 L 178 394 C 195 400 215 406 230 408 C 245 408 258 406 267 403 C 245 420 218 445 200 458 C 192 468 200 480 222 486 C 244 492 267 486 290 478 C 312 470 335 458 350 448 C 356 440 356 455 356 472 C 356 480 360 488 368 494 C 380 500 389 518 391 537 C 395 550 400 562 411 582 C 422 600 433 618 444 636 C 450 652 458 664 467 678 C 478 696 489 716 496 735 C 502 754 511 772 524 790 C 535 806 550 824 570 836 L 578 839 L 600 839 C 618 835 632 826 644 814 C 658 800 672 782 689 762 C 700 744 711 727 720 712 C 724 702 725 694 730 682 C 740 662 750 642 762 620 C 772 600 783 578 800 557 C 815 537 830 522 845 510 C 860 500 878 494 895 490 C 912 492 932 496 952 498 C 968 496 980 492 995 484 C 1012 474 1022 464 1035 454 C 1052 448 1068 446 1082 446 C 1098 448 1112 454 1126 460 C 1142 470 1156 480 1172 482 C 1186 478 1196 470 1206 460 C 1216 450 1226 440 1240 432 C 1250 438 1260 450 1270 462 C 1280 450 1290 434 1302 420 C 1320 400 1338 382 1356 364 C 1372 350 1392 330 1412 312 C 1428 302 1448 292 1466 284 C 1462 274 1448 266 1430 260 C 1412 254 1394 252 1380 254 C 1358 260 1338 268 1318 276 C 1298 282 1278 284 1258 284 C 1238 284 1218 282 1200 280 C 1180 278 1160 278 1140 280 C 1120 282 1100 284 1080 284 C 1060 284 1040 282 1020 282 C 1000 282 980 284 960 284 C 940 284 920 284 900 284 C 880 284 860 284 840 284 C 820 284 800 284 780 284 C 760 284 740 282 720 280 C 702 276 684 270 668 262 C 652 252 636 240 620 228 C 608 216 598 202 590 188 C 582 172 570 154 558 140 C 544 124 530 114 514 108 C 498 102 482 100 462 96 C 442 90 422 82 400 74 C 380 66 358 60 337 58 C 317 58 297 62 277 68 C 258 74 238 80 218 88 C 198 96 180 102 160 110 C 140 128 120 152 100 176 C 80 202 62 230 44 258 C 30 278 18 292 10 308 C 6 322 4 340 2 356 L 0 366 Z" fill="#2A2A3A" stroke="#555555" stroke-width="1"/>
  <path d="M 720 795 C 735 790 760 798 778 815 C 790 828 790 845 780 860 C 770 878 750 892 730 898 C 715 900 705 890 700 875 C 695 855 698 835 705 818 C 710 805 715 798 720 795 Z" fill="#2A2A3A" stroke="#555555" stroke-width="0.8"/>

  <!-- Radcliffe Line (dashed) -->
  <path d="M 578 156 C 580 180 575 200 570 220 C 565 240 555 260 545 280 C 535 300 520 320 505 340 C 490 360 470 380 450 400 C 430 420 410 435 390 448" stroke="#CC3333" stroke-width="2" fill="none" opacity="0.6" stroke-dasharray="8,5"/>
  <path d="M 1067 318 C 1065 340 1060 360 1055 380 C 1050 400 1042 420 1035 440 C 1028 455 1020 465 1012 475 C 1004 482 995 486 988 488" stroke="#CC3333" stroke-width="2" fill="none" opacity="0.6" stroke-dasharray="8,5"/>

  <!-- MIGRATION ARROWS: Punjab (West to East = Hindu/Sikh refugees to India) -->
  <!-- Major flow: ~5 million West Punjab to East Punjab -->
  <path d="M 440 220 C 470 240 500 260 540 280" stroke="#5588CC" stroke-width="8" fill="none" opacity="0.5" marker-end="url(#arrowH)"/>
  <path d="M 420 260 C 450 280 480 300 520 320" stroke="#5588CC" stroke-width="6" fill="none" opacity="0.45" marker-end="url(#arrowH)"/>
  <path d="M 400 300 C 430 310 460 320 500 330" stroke="#5588CC" stroke-width="5" fill="none" opacity="0.4" marker-end="url(#arrowH)"/>

  <!-- MIGRATION ARROWS: Bengal (East to West = Muslim refugees to East Pakistan) -->
  <path d="M 1100 430 C 1080 420 1060 410 1040 400" stroke="#CC8855" stroke-width="6" fill="none" opacity="0.45" marker-end="url(#arrowM)"/>
  <path d="M 1120 450 C 1100 440 1080 430 1060 420" stroke="#CC8855" stroke-width="5" fill="none" opacity="0.4" marker-end="url(#arrowM)"/>

  <!-- MIGRATION ARROWS: Bengal (West to East = Hindu refugees to India) -->
  <path d="M 1040 400 C 1060 410 1080 420 1100 430" stroke="#5588CC" stroke-width="5" fill="none" opacity="0.35" marker-end="url(#arrowH)"/>
  <path d="M 1020 430 C 1040 440 1060 450 1080 460" stroke="#5588CC" stroke-width="4" fill="none" opacity="0.3" marker-end="url(#arrowH)"/>

  <!-- Sea route: Karachi to Bombay -->
  <path d="M 133 390 C 180 430 250 480 330 520 C 360 535 380 540 391 537" stroke="#5588CC" stroke-width="3" fill="none" opacity="0.3" stroke-dasharray="4,3" marker-end="url(#arrowH)"/>
  <!-- Air route: Lahore to Delhi -->
  <path d="M 458 190 C 490 210 530 240 587 264" stroke="#5588CC" stroke-width="2" fill="none" opacity="0.3" stroke-dasharray="2,2"/>

  <!-- Migration volume labels -->
  <text x="480" y="245" font-size="10" fill="#5588CC" font-weight="600">~5M</text>
  <text x="480" y="258" font-size="7" fill="#7799CC">Hindu/Sikh refugees</text>
  <text x="480" y="270" font-size="7" fill="#7799CC">West Punjab → East Punjab</text>

  <text x="440" y="310" font-size="9" fill="#5588CC" font-weight="500">~3M</text>
  <text x="440" y="322" font-size="7" fill="#7799CC">Sindh → Gujarat/Rajasthan</text>

  <text x="1055" y="408" font-size="10" fill="#CC8855" font-weight="600">~2M</text>
  <text x="1055" y="421" font-size="7" fill="#DDAA77">Muslim refugees</text>
  <text x="1055" y="433" font-size="7" fill="#DDAA77">India → East Pakistan</text>

  <text x="1080" y="455" font-size="9" fill="#5588CC" font-weight="500">~2.5M</text>
  <text x="1080" y="467" font-size="7" fill="#7799CC">Hindu refugees</text>
  <text x="1080" y="479" font-size="7" fill="#7799CC">East Pakistan → India</text>

  <text x="260" y="470" font-size="8" fill="#5588CC" font-weight="400" opacity="0.6">Sea route</text>
  <text x="510" y="235" font-size="7" fill="#5588CC" opacity="0.5">Air lift</text>

  <!-- Key cities -->
  <circle cx="587" cy="264" r="4" fill="#C4A34E" stroke="#FFF" stroke-width="0.5"/>
  <circle cx="458" cy="183" r="3" fill="#FFFFFF" stroke="#333" stroke-width="0.5"/>
  <circle cx="1084" cy="433" r="3" fill="#FFFFFF" stroke="#333" stroke-width="0.5"/>
  <circle cx="133" cy="371" r="3" fill="#FFFFFF" stroke="#333" stroke-width="0.5"/>
  <circle cx="391" cy="537" r="3" fill="#FFFFFF" stroke="#333" stroke-width="0.5"/>
  <g font-size="8" fill="#BBBBBB">
    <text x="597" y="260">Delhi</text><text x="468" y="179">Lahore</text>
    <text x="1094" y="429">Calcutta</text><text x="105" y="368">Karachi</text>
    <text x="365" y="534">Bombay</text>
  </g>

  <!-- Statistics panel -->
  <g transform="translate(40, 80)">
    <rect x="0" y="0" width="280" height="65" fill="#0A0A0A" opacity="0.85" stroke="#333333" stroke-width="0.5" rx="4"/>
    <text x="12" y="18" font-size="10" fill="#CCCCCC" font-weight="600">Partition Migration, 1947–48</text>
    <text x="12" y="34" font-size="8" fill="#AAAAAA">Total displaced: 10–20 million people</text>
    <text x="12" y="48" font-size="8" fill="#AAAAAA">Deaths: 200,000 – 2,000,000 (estimates vary widely)</text>
    <text x="12" y="60" font-size="7" fill="#888888">Largest mass migration in human history</text>
  </g>

  <!-- Scale bar -->
  <g transform="translate(50, 850)">
    <rect x="0" y="0" width="120" height="1" fill="#888888"/>
    <line x1="0" y1="-4" x2="0" y2="4" stroke="#888888" stroke-width="1"/>
    <line x1="60" y1="-3" x2="60" y2="3" stroke="#888888" stroke-width="0.8"/>
    <line x1="120" y1="-4" x2="120" y2="4" stroke="#888888" stroke-width="1"/>
    <text x="60" y="12" font-size="7" fill="#888888" text-anchor="middle">0 — 300 — 600 km</text>
  </g>
  <g transform="translate(1520, 60)">
    <circle cx="0" cy="0" r="22" fill="none" stroke="#555555" stroke-width="0.5"/>
    <polygon points="0,-30 -4,-20 4,-20" fill="#C4A34E"/>
    <polygon points="0,30 -4,20 4,20" fill="#555555"/>
    <text x="0" y="-34" font-size="9" fill="#C4A34E" text-anchor="middle" font-weight="600">N</text>
  </g>

  <!-- Legend -->
  <g transform="translate(1340, 700)">
    <rect x="0" y="0" width="240" height="130" fill="#0A0A0A" opacity="0.85" stroke="#333333" stroke-width="0.5" rx="4"/>
    <text x="12" y="20" font-size="10" fill="#CCCCCC" font-weight="600">Migration Flows</text>
    <line x1="12" y1="36" x2="60" y2="36" stroke="#5588CC" stroke-width="6" opacity="0.6" marker-end="url(#arrowH)"/>
    <text x="70" y="39" font-size="8" fill="#AAAAAA">Hindu/Sikh to India</text>
    <line x1="12" y1="54" x2="60" y2="54" stroke="#CC8855" stroke-width="6" opacity="0.6" marker-end="url(#arrowM)"/>
    <text x="70" y="57" font-size="8" fill="#AAAAAA">Muslim to Pakistan</text>
    <line x1="12" y1="72" x2="60" y2="72" stroke="#5588CC" stroke-width="2" stroke-dasharray="4,3" opacity="0.5"/>
    <text x="70" y="75" font-size="8" fill="#AAAAAA">Sea/Air routes</text>
    <line x1="12" y1="88" x2="60" y2="88" stroke="#CC3333" stroke-width="2" stroke-dasharray="8,5" opacity="0.6"/>
    <text x="70" y="91" font-size="8" fill="#AAAAAA">Radcliffe boundary</text>
    <text x="12" y="112" font-size="7" fill="#888888">Arrow width ∝ refugee volume</text>
  </g>

  <text x="40" y="40" font-size="28" font-weight="700" fill="#FFFFFF">Partition Migration Flows, 1947–48</text>
  <text x="40" y="62" font-size="14" fill="#999999">Population Movements Across the New Border</text>
  <text x="1590" y="890" font-size="7" fill="#555555" text-anchor="end">© The Breakdown Knowledge Platform. Migration estimates from Pandey (1997), Talbot (2007).</text>
</svg>
